%TF.GenerationSoftware,KiCad,Pcbnew,(5.1.10)-1*%
%TF.CreationDate,2021-08-05T09:17:10+02:00*%
%TF.ProjectId,qez,71657a2e-6b69-4636-9164-5f7063625858,rev?*%
%TF.SameCoordinates,Original*%
%TF.FileFunction,Soldermask,Top*%
%TF.FilePolarity,Negative*%
%FSLAX46Y46*%
G04 Gerber Fmt 4.6, Leading zero omitted, Abs format (unit mm)*
G04 Created by KiCad (PCBNEW (5.1.10)-1) date 2021-08-05 09:17:10*
%MOMM*%
%LPD*%
G01*
G04 APERTURE LIST*
%ADD10C,3.987800*%
%ADD11C,3.048000*%
%ADD12C,1.750000*%
%ADD13O,1.000000X1.600000*%
%ADD14C,0.650000*%
%ADD15O,1.000000X2.100000*%
G04 APERTURE END LIST*
D10*
%TO.C,MX41*%
X205574900Y-115570000D03*
X105575100Y-115570000D03*
D11*
X205574900Y-130810000D03*
X105575100Y-130810000D03*
D12*
X160655000Y-123825000D03*
X150495000Y-123825000D03*
D10*
X155575000Y-123825000D03*
%TD*%
D12*
%TO.C,MX34*%
X165417500Y-123825000D03*
X155257500Y-123825000D03*
D10*
X160337500Y-123825000D03*
%TD*%
D12*
%TO.C,MX25*%
X143986250Y-104775000D03*
X133826250Y-104775000D03*
D10*
X138906250Y-104775000D03*
%TD*%
%TO.C,MX40*%
X177006250Y-123825000D03*
D12*
X171926250Y-123825000D03*
X182086250Y-123825000D03*
D11*
X165100000Y-130810000D03*
X188912500Y-130810000D03*
D10*
X165100000Y-115570000D03*
X188912500Y-115570000D03*
%TD*%
%TO.C,MX39*%
X136525000Y-123825000D03*
D12*
X131445000Y-123825000D03*
X141605000Y-123825000D03*
D11*
X124618750Y-130810000D03*
X148431250Y-130810000D03*
D10*
X124618750Y-115570000D03*
X148431250Y-115570000D03*
%TD*%
%TO.C,MX35*%
X193675000Y-123825000D03*
D12*
X188595000Y-123825000D03*
X198755000Y-123825000D03*
D11*
X181768750Y-130810000D03*
X205581250Y-130810000D03*
D10*
X181768750Y-115570000D03*
X205581250Y-115570000D03*
%TD*%
%TO.C,MX33*%
X134143750Y-115570000D03*
X110331250Y-115570000D03*
D11*
X134143750Y-130810000D03*
X110331250Y-130810000D03*
D12*
X127317500Y-123825000D03*
X117157500Y-123825000D03*
D10*
X122237500Y-123825000D03*
%TD*%
D12*
%TO.C,MX28*%
X201136250Y-104775000D03*
X190976250Y-104775000D03*
D10*
X196056250Y-104775000D03*
%TD*%
%TO.C,MX36*%
X205581250Y-123825000D03*
D12*
X200501250Y-123825000D03*
X210661250Y-123825000D03*
%TD*%
D10*
%TO.C,MX32*%
X105568750Y-123825000D03*
D12*
X100488750Y-123825000D03*
X110648750Y-123825000D03*
%TD*%
%TO.C,MX17*%
X191611250Y-85725000D03*
X181451250Y-85725000D03*
D10*
X186531250Y-85725000D03*
%TD*%
D12*
%TO.C,MX14*%
X134461250Y-85725000D03*
X124301250Y-85725000D03*
D10*
X129381250Y-85725000D03*
%TD*%
%TO.C,MX1*%
X67468750Y-66675000D03*
D12*
X62388750Y-66675000D03*
X72548750Y-66675000D03*
%TD*%
D10*
%TO.C,MX2*%
X86518750Y-66675000D03*
D12*
X81438750Y-66675000D03*
X91598750Y-66675000D03*
%TD*%
D10*
%TO.C,MX3*%
X105568750Y-66675000D03*
D12*
X100488750Y-66675000D03*
X110648750Y-66675000D03*
%TD*%
D10*
%TO.C,MX4*%
X124618750Y-66675000D03*
D12*
X119538750Y-66675000D03*
X129698750Y-66675000D03*
%TD*%
D10*
%TO.C,MX5*%
X143668750Y-66675000D03*
D12*
X138588750Y-66675000D03*
X148748750Y-66675000D03*
%TD*%
D10*
%TO.C,MX6*%
X162718750Y-66675000D03*
D12*
X157638750Y-66675000D03*
X167798750Y-66675000D03*
%TD*%
D10*
%TO.C,MX7*%
X181768750Y-66675000D03*
D12*
X176688750Y-66675000D03*
X186848750Y-66675000D03*
%TD*%
D10*
%TO.C,MX8*%
X200818750Y-66675000D03*
D12*
X195738750Y-66675000D03*
X205898750Y-66675000D03*
%TD*%
D10*
%TO.C,MX9*%
X219868750Y-66675000D03*
D12*
X214788750Y-66675000D03*
X224948750Y-66675000D03*
%TD*%
%TO.C,MX15*%
X153511250Y-85725000D03*
X143351250Y-85725000D03*
D10*
X148431250Y-85725000D03*
%TD*%
D12*
%TO.C,MX30*%
X243998750Y-104775000D03*
X233838750Y-104775000D03*
D10*
X238918750Y-104775000D03*
%TD*%
D12*
%TO.C,MX21*%
X79692500Y-104775000D03*
X69532500Y-104775000D03*
D10*
X74612500Y-104775000D03*
%TD*%
D12*
%TO.C,MX11*%
X74930000Y-85725000D03*
X64770000Y-85725000D03*
D10*
X69850000Y-85725000D03*
%TD*%
D12*
%TO.C,MX10*%
X246380000Y-66675000D03*
X236220000Y-66675000D03*
D10*
X241300000Y-66675000D03*
%TD*%
D13*
%TO.C,USB1*%
X159895000Y-55020500D03*
D14*
X158465000Y-58670500D03*
D13*
X151255000Y-55020500D03*
D14*
X152685000Y-58670500D03*
D15*
X151255000Y-59200500D03*
X159895000Y-59200500D03*
%TD*%
D12*
%TO.C,MX38*%
X248761250Y-123825000D03*
X238601250Y-123825000D03*
D10*
X243681250Y-123825000D03*
%TD*%
D12*
%TO.C,MX37*%
X229711250Y-123825000D03*
X219551250Y-123825000D03*
D10*
X224631250Y-123825000D03*
%TD*%
D12*
%TO.C,MX31*%
X91598750Y-123825000D03*
X81438750Y-123825000D03*
D10*
X86518750Y-123825000D03*
%TD*%
D12*
%TO.C,MX29*%
X220186250Y-104775000D03*
X210026250Y-104775000D03*
D10*
X215106250Y-104775000D03*
%TD*%
D12*
%TO.C,MX27*%
X182086250Y-104775000D03*
X171926250Y-104775000D03*
D10*
X177006250Y-104775000D03*
%TD*%
D12*
%TO.C,MX26*%
X163036250Y-104775000D03*
X152876250Y-104775000D03*
D10*
X157956250Y-104775000D03*
%TD*%
D12*
%TO.C,MX24*%
X124936250Y-104775000D03*
X114776250Y-104775000D03*
D10*
X119856250Y-104775000D03*
%TD*%
D12*
%TO.C,MX23*%
X105886250Y-104775000D03*
X95726250Y-104775000D03*
D10*
X100806250Y-104775000D03*
%TD*%
D12*
%TO.C,MX22*%
X72548750Y-123825000D03*
X62388750Y-123825000D03*
D10*
X67468750Y-123825000D03*
%TD*%
D12*
%TO.C,MX20*%
X248761250Y-85725000D03*
X238601250Y-85725000D03*
D10*
X243681250Y-85725000D03*
%TD*%
D12*
%TO.C,MX19*%
X229711250Y-85725000D03*
X219551250Y-85725000D03*
D10*
X224631250Y-85725000D03*
%TD*%
D12*
%TO.C,MX18*%
X210661250Y-85725000D03*
X200501250Y-85725000D03*
D10*
X205581250Y-85725000D03*
%TD*%
D12*
%TO.C,MX16*%
X172561250Y-85725000D03*
X162401250Y-85725000D03*
D10*
X167481250Y-85725000D03*
%TD*%
D12*
%TO.C,MX13*%
X115411250Y-85725000D03*
X105251250Y-85725000D03*
D10*
X110331250Y-85725000D03*
%TD*%
D12*
%TO.C,MX12*%
X96361250Y-85725000D03*
X86201250Y-85725000D03*
D10*
X91281250Y-85725000D03*
%TD*%
M02*
