M48
; DRILL file {KiCad (5.1.10)-1} date 08/05/21 09:17:11
; FORMAT={-:-/ absolute / metric / decimal}
; #@! TF.CreationDate,2021-08-05T09:17:11+02:00
; #@! TF.GenerationSoftware,Kicad,Pcbnew,(5.1.10)-1
; #@! TF.FileFunction,Plated,1,2,PTH
FMAT,2
METRIC
T1C0.400
T2C0.600
T3C1.040
T4C1.470
%
G90
G05
T1
X88.075Y-94.932
X99.79Y-95.091
X118.078Y-95.853
X134.366Y-89.662
X136.652Y-96.266
X141.224Y-89.662
X146.177Y-64.389
X147.637Y-70.612
X148.717Y-92.202
X148.971Y-127.508
X153.125Y-62.394
X153.348Y-75.506
X154.373Y-74.481
X155.13Y-96.837
X157.162Y-70.612
X158.052Y-62.357
X162.56Y-109.093
X166.243Y-93.345
X167.259Y-93.345
X167.513Y-95.25
X168.846Y-122.999
X171.45Y-109.093
X172.212Y-90.043
X172.212Y-98.806
X176.213Y-127.572
X179.197Y-87.757
X179.578Y-92.71
X181.102Y-88.519
X196.659Y-112.712
T3
X154.305Y-128.905
X156.845Y-128.905
X159.067Y-128.905
X161.607Y-128.905
T4
X63.659Y-64.135
X63.659Y-121.285
X66.04Y-83.185
X70.009Y-61.595
X70.009Y-118.745
X70.802Y-102.235
X72.39Y-80.645
X77.153Y-99.695
X82.709Y-64.135
X82.709Y-121.285
X87.471Y-83.185
X89.059Y-61.595
X89.059Y-118.745
X93.821Y-80.645
X96.996Y-102.235
X101.759Y-64.135
X101.759Y-121.285
X103.346Y-99.695
X106.521Y-83.185
X108.109Y-61.595
X108.109Y-118.745
X112.871Y-80.645
X116.046Y-102.235
X118.427Y-121.285
X120.809Y-64.135
X122.396Y-99.695
X124.777Y-118.745
X125.571Y-83.185
X127.159Y-61.595
X131.921Y-80.645
X132.715Y-121.285
X135.096Y-102.235
X139.065Y-118.745
X139.859Y-64.135
X141.446Y-99.695
X144.621Y-83.185
X146.209Y-61.595
X150.971Y-80.645
X151.765Y-121.285
X154.146Y-102.235
X156.528Y-121.285
X158.115Y-118.745
X158.909Y-64.135
X160.496Y-99.695
X162.877Y-118.745
X163.671Y-83.185
X165.259Y-61.595
X170.021Y-80.645
X173.196Y-102.235
X173.196Y-121.285
X177.959Y-64.135
X179.546Y-99.695
X179.546Y-118.745
X182.721Y-83.185
X184.309Y-61.595
X189.071Y-80.645
X189.865Y-121.285
X192.246Y-102.235
X196.215Y-118.745
X197.009Y-64.135
X198.596Y-99.695
X201.771Y-83.185
X201.771Y-121.285
X203.359Y-61.595
X208.121Y-80.645
X208.121Y-118.745
X211.296Y-102.235
X216.059Y-64.135
X217.646Y-99.695
X220.821Y-83.185
X220.821Y-121.285
X222.409Y-61.595
X227.171Y-80.645
X227.171Y-118.745
X235.109Y-102.235
X237.49Y-64.135
X239.871Y-83.185
X239.871Y-121.285
X241.459Y-99.695
X243.84Y-61.595
X246.221Y-80.645
X246.221Y-118.745
T2
G00X151.255Y-54.72
M15
G01X151.255Y-55.32
M16
G05
G00X151.255Y-58.65
M15
G01X151.255Y-59.75
M16
G05
G00X159.895Y-54.72
M15
G01X159.895Y-55.32
M16
G05
G00X159.895Y-58.65
M15
G01X159.895Y-59.75
M16
G05
T0
M30
