M48
; DRILL file {KiCad (5.1.10)-1} date 08/19/21 10:16:46
; FORMAT={-:-/ absolute / metric / decimal}
; #@! TF.CreationDate,2021-08-19T10:16:46+02:00
; #@! TF.GenerationSoftware,Kicad,Pcbnew,(5.1.10)-1
; #@! TF.FileFunction,NonPlated,1,2,NPTH
FMAT,2
METRIC
T1C0.650
T2C1.750
T3C3.048
T4C3.988
%
G90
G05
T1
X152.685Y-58.67
X158.465Y-58.67
T2
X62.389Y-66.675
X62.389Y-123.825
X64.77Y-85.725
X69.532Y-104.775
X72.549Y-66.675
X72.549Y-123.825
X74.93Y-85.725
X79.692Y-104.775
X81.439Y-66.675
X81.439Y-123.825
X86.201Y-85.725
X91.599Y-66.675
X91.599Y-123.825
X95.726Y-104.775
X96.361Y-85.725
X100.489Y-66.675
X100.489Y-123.825
X105.251Y-85.725
X105.886Y-104.775
X110.649Y-66.675
X110.649Y-123.825
X114.776Y-104.775
X115.411Y-85.725
X117.157Y-123.825
X119.539Y-66.675
X124.301Y-85.725
X124.936Y-104.775
X127.317Y-123.825
X129.699Y-66.675
X131.445Y-123.825
X133.826Y-104.775
X134.461Y-85.725
X138.589Y-66.675
X141.605Y-123.825
X143.351Y-85.725
X143.986Y-104.775
X148.749Y-66.675
X150.495Y-123.825
X152.876Y-104.775
X153.511Y-85.725
X155.257Y-123.825
X157.639Y-66.675
X160.655Y-123.825
X162.401Y-85.725
X163.036Y-104.775
X165.417Y-123.825
X167.799Y-66.675
X171.926Y-104.775
X171.926Y-123.825
X172.561Y-85.725
X176.689Y-66.675
X181.451Y-85.725
X182.086Y-104.775
X182.086Y-123.825
X186.849Y-66.675
X188.595Y-123.825
X190.976Y-104.775
X191.611Y-85.725
X195.739Y-66.675
X198.755Y-123.825
X200.501Y-85.725
X200.501Y-123.825
X201.136Y-104.775
X205.899Y-66.675
X210.026Y-104.775
X210.661Y-85.725
X210.661Y-123.825
X214.789Y-66.675
X219.551Y-85.725
X219.551Y-123.825
X220.186Y-104.775
X224.949Y-66.675
X229.711Y-85.725
X229.711Y-123.825
X233.839Y-104.775
X236.22Y-66.675
X238.601Y-85.725
X238.601Y-123.825
X243.999Y-104.775
X246.38Y-66.675
X248.761Y-85.725
X248.761Y-123.825
T3
X105.575Y-130.81
X110.331Y-130.81
X124.619Y-130.81
X134.144Y-130.81
X148.431Y-130.81
X165.1Y-130.81
X181.769Y-130.81
X188.912Y-130.81
X205.575Y-130.81
X205.581Y-130.81
T4
X67.469Y-66.675
X67.469Y-123.825
X69.85Y-85.725
X74.612Y-104.775
X86.519Y-66.675
X86.519Y-123.825
X91.281Y-85.725
X100.806Y-104.775
X105.569Y-66.675
X105.569Y-123.825
X105.575Y-115.57
X110.331Y-85.725
X110.331Y-115.57
X119.856Y-104.775
X122.237Y-123.825
X124.619Y-66.675
X124.619Y-115.57
X129.381Y-85.725
X134.144Y-115.57
X136.525Y-123.825
X138.906Y-104.775
X143.669Y-66.675
X148.431Y-85.725
X148.431Y-115.57
X155.575Y-123.825
X157.956Y-104.775
X160.338Y-123.825
X162.719Y-66.675
X165.1Y-115.57
X167.481Y-85.725
X177.006Y-104.775
X177.006Y-123.825
X181.769Y-66.675
X181.769Y-115.57
X186.531Y-85.725
X188.912Y-115.57
X193.675Y-123.825
X196.056Y-104.775
X200.819Y-66.675
X205.575Y-115.57
X205.581Y-85.725
X205.581Y-115.57
X205.581Y-123.825
X215.106Y-104.775
X219.869Y-66.675
X224.631Y-85.725
X224.631Y-123.825
X238.919Y-104.775
X241.3Y-66.675
X243.681Y-85.725
X243.681Y-123.825
T0
M30
